<?xml version="1.0" encoding="UTF-8" standalone="no"?>
<!-- Created with Inkscape (http://www.inkscape.org/) -->

<svg
   width="48"
   height="24"
   viewBox="0 0 12.7 6.35"
   version="1.1"
   id="svg1"
   xmlns="http://www.w3.org/2000/svg"
   xmlns:svg="http://www.w3.org/2000/svg">
  <defs
     id="defs1" />
  <g
     id="layer1">
    <path
       id="path1"
       style="fill:#ffdd99;stroke:none;stroke-width:0.402;stroke-linecap:round;stroke-linejoin:round;stroke-dasharray:none;opacity:1;fill-opacity:1"
       d="M 6.35 0 A 3.175 3.175 0 0 0 3.175 3.175 A 3.175 3.175 0 0 0 6.35 6.35 A 3.175 3.175 0 0 0 9.525 3.175 A 3.175 3.175 0 0 0 6.35 0 z M 5.2322388 1.7756022 C 5.2433978 1.7748318 5.2557958 1.7744922 5.2694458 1.7756022 C 5.2862278 1.7769222 5.3036304 1.7791537 5.3185384 1.7833537 C 5.3814937 1.8009931 5.4347468 1.8421483 5.4668498 1.8985921 A 0.10001 0.10001 0 0 0 5.4668498 1.8991089 A 0.10001 0.10001 0 0 0 5.4668498 1.8996257 A 0.10001 0.10001 0 0 0 5.4668498 1.9001424 C 5.5326378 2.0167811 5.49058 2.1666386 5.3748657 2.2344889 L 4.880839 2.5212931 C 4.7634689 2.5893513 4.610814 2.5495947 4.5428752 2.4318929 C 4.4748168 2.3145228 4.5150905 2.161868 4.6327922 2.093929 L 5.1268188 1.8066081 C 5.1603076 1.7875631 5.1964418 1.7780722 5.2322388 1.7756022 z M 7.4372721 1.7812866 L 7.4393392 1.7812866 C 7.4867203 1.778156 7.5337794 1.7897272 7.5742147 1.8122925 A 0.10001 0.10001 0 0 1 7.5762817 1.8122925 L 8.0604899 2.091862 C 8.1758357 2.1584407 8.2160567 2.3100946 8.1504069 2.4256917 C 8.0834651 2.5416675 7.932422 2.5827827 7.8165771 2.5156087 L 7.3303019 2.2344889 C 7.2163191 2.1676536 7.1754571 2.0193879 7.2403849 1.9042765 A 0.10001 0.10001 0 0 1 7.2419352 1.9042765 C 7.274767 1.8472293 7.3296956 1.8055861 7.3928304 1.7890381 C 7.4066304 1.7854081 7.4209613 1.7824366 7.4372721 1.7812866 z M 5.3459269 2.7931112 C 5.5566726 2.7931111 5.7247152 2.9668179 5.7247152 3.1760335 C 5.7247152 3.3852497 5.5553613 3.5568888 5.3459269 3.5568888 C 5.1364917 3.5568888 4.9666219 3.3852485 4.9666219 3.1760335 C 4.9666219 2.9668173 5.1351817 2.7931112 5.3459269 2.7931112 z M 7.3556234 2.7931112 C 7.5663692 2.7931111 7.7344116 2.9665994 7.7344116 3.1760335 C 7.7344116 3.3854682 7.5650578 3.5568888 7.3556234 3.5568888 C 7.1461883 3.5568888 6.9747681 3.3852485 6.9747681 3.1760335 C 6.9747681 2.9668172 7.1448783 2.7931112 7.3556234 2.7931112 z M 7.2967122 4.0333455 C 7.3512294 4.0346127 7.4014888 4.0617695 7.4315877 4.1072428 C 7.4812767 4.1811122 7.4632983 4.2841506 7.3907633 4.3361694 C 7.1932499 4.4758392 7.0043728 4.5068061 6.8610799 4.4922323 C 6.7404772 4.4799653 6.6718059 4.4397701 6.6326701 4.4198853 C 6.5849625 4.4706282 6.523321 4.5625122 6.3494832 4.5625122 C 6.174901 4.5625122 6.113882 4.4705666 6.0662964 4.4198853 C 6.0276723 4.4396073 5.9603726 4.4798447 5.8399536 4.4922323 C 5.6966977 4.5069694 5.5066459 4.4761314 5.3087199 4.3361694 C 5.2355831 4.2837198 5.218207 4.1796825 5.2694458 4.1056925 C 5.2938685 4.0705797 5.3308637 4.0455829 5.3727987 4.0369629 C 5.4166126 4.0283059 5.4630047 4.0371505 5.4999227 4.0622843 A 0.10001 0.10001 0 0 1 5.5019897 4.0622843 C 5.6503547 4.1671991 5.7749703 4.1776619 5.8673421 4.166154 C 5.959711 4.154646 6.0099691 4.1232625 6.0099691 4.1232625 A 0.10001 0.10001 0 0 1 6.0115194 4.1232625 C 6.0825215 4.0804707 6.1767604 4.095228 6.2285604 4.1599528 C 6.2331485 4.1640168 6.3057504 4.2286825 6.3494832 4.2286825 C 6.393751 4.2286825 6.4696131 4.1624928 6.4724731 4.1599528 C 6.5238828 4.097267 6.6151952 4.0806185 6.68538 4.1211955 A 0.10001 0.10001 0 0 1 6.6895142 4.1232625 C 6.6895142 4.1232625 6.7397724 4.1546458 6.8321411 4.166154 C 6.9245099 4.1776623 7.0491286 4.1671995 7.1974935 4.0622843 L 7.1974935 4.0643514 C 7.2264265 4.0437504 7.2611974 4.032832 7.2967122 4.0333455 z " />
  </g>
</svg>
