<?xml version="1.0" encoding="UTF-8" standalone="no"?>
<!-- Created with Inkscape (http://www.inkscape.org/) -->

<svg
   width="6.3499999mm"
   height="6.3499999mm"
   viewBox="0 0 6.3499999 6.3499999"
   version="1.1"
   id="svg5"
   xml:space="preserve"
   xmlns="http://www.w3.org/2000/svg"
   xmlns:svg="http://www.w3.org/2000/svg"><defs
     id="defs2"><symbol
       id="OverThePhone"
       style="stroke-linejoin:miter;stroke-miterlimit:10"><title
         id="title13122">Over the Phone</title><rect
         x="80"
         y="65"
         width="250"
         height="120"
         style="stroke:none"
         id="rect13124" /><path
         d="m 124,179 -15,41 -21,-16 -35,76 40,-49 32,17 53,-70"
         style="stroke:none"
         id="path13126" /><rect
         x="75"
         y="60"
         width="250"
         height="120"
         style="fill:#eeeeee;stroke-width:3.5"
         id="rect13128" /><path
         d="m 120,175 -15,41 -21,-16 -35,76 40,-49 32,17 53,-70"
         style="fill:#eeeeee;stroke-width:3.5"
         id="path13130" /><rect
         x="80"
         y="65"
         width="235"
         height="105"
         style="fill:#ffffff;stroke:none"
         id="rect13132" /><path
         d="m 125,166 -18,53 -22,-15 -26,56 29,-40 28,12 55,-68"
         style="fill:#ffffff;stroke:none"
         id="path13134" /></symbol><symbol
       id="SquaredBalloon"
       style="stroke-linejoin:miter;stroke-miterlimit:10"><title
         id="title13107">Squared Balloon</title><rect
         x="80"
         y="65"
         width="250"
         height="140"
         rx="17"
         style="stroke:none"
         id="rect13109" /><path
         d="m 126,199 25,43 30,-43"
         style="stroke:none"
         id="path13111" /><rect
         x="75"
         y="60"
         width="250"
         height="140"
         rx="15"
         style="fill:#eeeeee;stroke-width:3.5"
         id="rect13113" /><path
         d="m 120,195 25,43 30,-43"
         style="fill:#eeeeee;stroke-width:3.5"
         id="path13115" /><rect
         x="80"
         y="65"
         width="235"
         height="125"
         rx="10"
         style="fill:#ffffff;stroke:none"
         id="rect13117" /><path
         d="m 118,180 25,43 30,-43"
         style="fill:#ffffff;stroke:none"
         id="path13119" /></symbol><symbol
       id="RoundedBalloon"
       style="stroke-linejoin:miter;stroke-miterlimit:10"><title
         id="title13092">Rounded Balloon</title><rect
         x="80"
         y="65"
         width="250"
         height="120"
         rx="32"
         style="stroke:none"
         id="rect13094" /><path
         d="m 124,179 -30,53 78,-53"
         style="stroke:none"
         id="path13096" /><rect
         x="75"
         y="60"
         width="250"
         height="120"
         rx="30"
         style="fill:#eeeeee;stroke-width:3.5"
         id="rect13098" /><path
         d="m 120,175 -30,53 78,-53"
         style="fill:#eeeeee;stroke-width:3.5"
         id="path13100" /><rect
         x="80"
         y="65"
         width="235"
         height="105"
         rx="25"
         style="fill:#ffffff;stroke:none"
         id="rect13102" /><path
         d="m 132,160 -30,53 78,-53"
         style="fill:#ffffff;stroke:none"
         id="path13104" /></symbol></defs><g
     id="layer1"
     transform="matrix(0.127,0,0,0.127,-11.534663,-17.059196)"
     style="fill:#000000"><path
       id="path13889"
       style="color:#000000;fill:#000000;fill-opacity:1;stroke-width:1.76357;stroke-linecap:round;stroke-linejoin:round;paint-order:stroke fill markers"
       d="m 96.421597,134.32438 a 5.5977477,5.5978501 0 0 0 -5.597476,5.59667 5.5977477,5.5978501 0 0 0 5.597476,5.59758 c 18.405473,0 33.203923,14.80327 33.203923,33.20908 a 5.5977477,5.5978501 0 0 0 5.60112,5.59667 5.5977477,5.5978501 0 0 0 5.59748,-5.59667 c 0,-24.45641 -19.94656,-44.40333 -44.402523,-44.40333 z m 0,18.86152 a 5.5977389,5.5978413 0 0 0 -5.597476,5.59759 5.5977389,5.5978413 0 0 0 5.597476,5.59758 c 7.988663,0 14.346383,6.35784 14.346383,14.34664 a 5.5977389,5.5978413 0 0 0 5.59657,5.59667 5.5977389,5.5978413 0 0 0 5.59748,-5.59667 c 0,-14.03939 -11.5013,-25.54181 -25.540433,-25.54181 z m 0.194117,19.64895 a 5.6965857,5.6966899 0 0 0 -5.696812,5.69693 5.6965857,5.6966899 0 0 0 5.696812,5.69691 5.6965857,5.6966899 0 0 0 5.695906,-5.69691 5.6965857,5.6966899 0 0 0 -5.695906,-5.69693 z" /></g></svg>
