<?xml version="1.0" encoding="UTF-8" standalone="no"?>
<svg
   height="24"
   viewBox="0 0 24 24"
   width="24"
   version="1.1"
   id="svg2"
   sodipodi:docname="blog.svg"
   inkscape:version="1.3.2 (091e20e, 2023-11-25, custom)"
   xml:space="preserve"
   xmlns:inkscape="http://www.inkscape.org/namespaces/inkscape"
   xmlns:sodipodi="http://sodipodi.sourceforge.net/DTD/sodipodi-0.dtd"
   xmlns="http://www.w3.org/2000/svg"
   xmlns:svg="http://www.w3.org/2000/svg"><defs
     id="defs2"><symbol
       id="OverThePhone"
       style="stroke-linejoin:miter;stroke-miterlimit:10"><title
         id="title13122">Over the Phone</title><rect
         x="80"
         y="65"
         width="250"
         height="120"
         style="stroke:none"
         id="rect13124" /><path
         d="m 124,179 -15,41 -21,-16 -35,76 40,-49 32,17 53,-70"
         style="stroke:none"
         id="path13126" /><rect
         x="75"
         y="60"
         width="250"
         height="120"
         style="fill:#eeeeee;stroke-width:3.5"
         id="rect13128" /><path
         d="m 120,175 -15,41 -21,-16 -35,76 40,-49 32,17 53,-70"
         style="fill:#eeeeee;stroke-width:3.5"
         id="path13130" /><rect
         x="80"
         y="65"
         width="235"
         height="105"
         style="fill:#ffffff;stroke:none"
         id="rect13132" /><path
         d="m 125,166 -18,53 -22,-15 -26,56 29,-40 28,12 55,-68"
         style="fill:#ffffff;stroke:none"
         id="path13134" /></symbol><symbol
       id="SquaredBalloon"
       style="stroke-linejoin:miter;stroke-miterlimit:10"><title
         id="title13107">Squared Balloon</title><rect
         x="80"
         y="65"
         width="250"
         height="140"
         rx="17"
         style="stroke:none"
         id="rect13109" /><path
         d="m 126,199 25,43 30,-43"
         style="stroke:none"
         id="path13111" /><rect
         x="75"
         y="60"
         width="250"
         height="140"
         rx="15"
         style="fill:#eeeeee;stroke-width:3.5"
         id="rect13113" /><path
         d="m 120,195 25,43 30,-43"
         style="fill:#eeeeee;stroke-width:3.5"
         id="path13115" /><rect
         x="80"
         y="65"
         width="235"
         height="125"
         rx="10"
         style="fill:#ffffff;stroke:none"
         id="rect13117" /><path
         d="m 118,180 25,43 30,-43"
         style="fill:#ffffff;stroke:none"
         id="path13119" /></symbol><symbol
       id="RoundedBalloon"
       style="stroke-linejoin:miter;stroke-miterlimit:10"><title
         id="title13092">Rounded Balloon</title><rect
         x="80"
         y="65"
         width="250"
         height="120"
         rx="32"
         style="stroke:none"
         id="rect13094" /><path
         d="m 124,179 -30,53 78,-53"
         style="stroke:none"
         id="path13096" /><rect
         x="75"
         y="60"
         width="250"
         height="120"
         rx="30"
         style="fill:#eeeeee;stroke-width:3.5"
         id="rect13098" /><path
         d="m 120,175 -30,53 78,-53"
         style="fill:#eeeeee;stroke-width:3.5"
         id="path13100" /><rect
         x="80"
         y="65"
         width="235"
         height="105"
         rx="25"
         style="fill:#ffffff;stroke:none"
         id="rect13102" /><path
         d="m 132,160 -30,53 78,-53"
         style="fill:#ffffff;stroke:none"
         id="path13104" /></symbol></defs><sodipodi:namedview
     id="namedview2"
     pagecolor="#ffffff"
     bordercolor="#000000"
     borderopacity="0.25"
     inkscape:showpageshadow="2"
     inkscape:pageopacity="0.0"
     inkscape:pagecheckerboard="0"
     inkscape:deskcolor="#d1d1d1"
     inkscape:zoom="14.760854"
     inkscape:cx="24.45658"
     inkscape:cy="9.7555331"
     inkscape:window-width="1366"
     inkscape:window-height="705"
     inkscape:window-x="-8"
     inkscape:window-y="-8"
     inkscape:window-maximized="1"
     inkscape:current-layer="svg2" /><path
     d="M 2.0324027,2.1001494 H 22.032403 V 22.100148 H 2.0324027 Z"
     fill="none"
     id="path1"
     style="stroke-width:0.833333;fill:none" /><path
     id="path13889"
     style="color:#000000;fill:#dddddd;fill-opacity:1;stroke-width:0.705426;stroke-linecap:round;stroke-linejoin:round;paint-order:stroke fill markers"
     d="m 4.2713927,2.1001487 a 2.2390991,2.2391399 0 0 0 -2.23899,2.2386682 2.2390991,2.2391399 0 0 0 2.23899,2.2390316 c 7.3621893,0 13.2815703,5.9213075 13.2815703,13.2836305 a 2.2390991,2.2391399 0 0 0 2.240448,2.238669 2.2390991,2.2391399 0 0 0 2.238992,-2.238669 c 0,-9.782562 -7.978625,-17.7613303 -17.7610103,-17.7613303 z m 0,7.544608 a 2.2390956,2.2391364 0 0 0 -2.23899,2.2390353 2.2390956,2.2391364 0 0 0 2.23899,2.239031 c 3.195465,0 5.7385533,2.543136 5.7385533,5.738656 a 2.2390956,2.2391364 0 0 0 2.238628,2.238669 2.2390956,2.2391364 0 0 0 2.238993,-2.238669 c 0,-5.615756 -4.6005213,-10.2167223 -10.2161743,-10.2167223 z m 0.07765,7.8595793 a 2.2786343,2.2786759 0 0 0 -2.278725,2.278771 2.2786343,2.2786759 0 0 0 2.278725,2.278765 2.2786343,2.2786759 0 0 0 2.278362,-2.278765 2.2786343,2.2786759 0 0 0 -2.278362,-2.278771 z" /></svg>
