<?xml version="1.0" encoding="UTF-8" standalone="no"?>
<svg
   width="16"
   height="16"
   fill="currentColor"
   class="bi bi-file-text"
   viewBox="0 0 16 16"
   version="1.1"
   id="svg2"
   xmlns="http://www.w3.org/2000/svg"
   xmlns:svg="http://www.w3.org/2000/svg">
  <defs
     id="defs2" />
  <path
     id="path1"
     style="fill:#ffffff"
     d="M 4 0 A 2 2 0 0 0 2 2 L 2 14 A 2 2 0 0 0 4 16 L 12 16 A 2 2 0 0 0 14 14 L 14 2 A 2 2 0 0 0 12 0 L 4 0 z M 4 1 L 12 1 A 1 1 0 0 1 13 2 L 13 14 A 1 1 0 0 1 12 15 L 4 15 A 1 1 0 0 1 3 14 L 3 2 A 1 1 0 0 1 4 1 z M 5 4 A 0.5 0.5 0 0 0 5 5 L 11 5 A 0.5 0.5 0 0 0 11 4 L 5 4 z M 5 6 A 0.5 0.5 0 0 0 4.5 6.5 A 0.5 0.5 0 0 0 5 7 L 11 7 A 0.5 0.5 0 0 0 11 6 L 5 6 z M 5 8 A 0.5 0.5 0 0 0 5 9 L 11 9 A 0.5 0.5 0 0 0 11 8 L 5 8 z M 5 10 A 0.5 0.5 0 0 0 5 11 L 8 11 A 0.5 0.5 0 0 0 8 10 L 5 10 z " />
</svg>
