<!DOCTYPE svg PUBLIC "-//W3C//DTD SVG 1.1//EN" "http://www.w3.org/Graphics/SVG/1.1/DTD/svg11.dtd">
<!-- Uploaded to: SVG Repo, www.svgrepo.com, Transformed by: SVG Repo Mixer Tools -->
<svg width="64px" height="64px" viewBox="0 0 24 24" fill="none" xmlns="http://www.w3.org/2000/svg">
<g id="SVGRepo_bgCarrier" stroke-width="0"/>
<g id="SVGRepo_tracerCarrier" stroke-linecap="round" stroke-linejoin="round"/>
<g id="SVGRepo_iconCarrier"> <path d="M21 21L13.3186 8.62439M21 12.9375C18.8012 15.4287 15.5841 17 12 17C8.41592 17 5.19883 15.4287 3 12.9375M3 21L10.6814 8.62439M12 4C10.6193 4 9.5 5.11929 9.5 6.5C9.5 7.39675 9.97215 8.18322 10.6814 8.62439M12 4C13.3807 4 14.5 5.11929 14.5 6.5C14.5 7.39675 14.0279 8.18322 13.3186 8.62439M12 4V3M13.3186 8.62439C12.9358 8.86248 12.484 9 12 9C11.516 9 11.0642 8.86248 10.6814 8.62439" stroke="#ffffff" stroke-width="2" stroke-linecap="round" stroke-linejoin="round"/> </g>
</svg>