<?xml version="1.0" encoding="UTF-8" standalone="no"?>
<!-- Created with Inkscape (http://www.inkscape.org/) -->

<svg
   width="5.7149978mm"
   height="6.3499999mm"
   viewBox="0 0 5.7149978 6.3499999"
   version="1.1"
   id="svg5"
   xml:space="preserve"
   sodipodi:docname="contacts.svg"
   inkscape:version="1.2.1 (9c6d41e410, 2022-07-14)"
   xmlns:inkscape="http://www.inkscape.org/namespaces/inkscape"
   xmlns:sodipodi="http://sodipodi.sourceforge.net/DTD/sodipodi-0.dtd"
   xmlns="http://www.w3.org/2000/svg"
   xmlns:svg="http://www.w3.org/2000/svg"><sodipodi:namedview
     id="namedview810"
     pagecolor="#ffffff"
     bordercolor="#000000"
     borderopacity="0.25"
     inkscape:showpageshadow="2"
     inkscape:pageopacity="0.0"
     inkscape:pagecheckerboard="0"
     inkscape:deskcolor="#d1d1d1"
     inkscape:document-units="mm"
     showgrid="false"
     inkscape:zoom="3.3375442"
     inkscape:cx="-9.1384558"
     inkscape:cy="36.553823"
     inkscape:current-layer="svg5" /><defs
     id="defs2" /><g
     id="layer1"
     transform="matrix(0.24,0,0,0.24,-34.87968,-6.0620592)"
     style="fill:#000000"><path
       d="m 157.23825,25.25858 c -6.5749,0 -11.90625,5.331353 -11.90625,11.906247 0,5.516562 3.75708,10.146773 8.85033,11.496146 l 3.05592,3.05594 3.05594,-3.05594 c 5.09322,-1.349373 8.8503,-5.979584 8.8503,-11.496146 0,-6.574897 -5.33135,-11.906247 -11.90624,-11.906247 z m 0,2.645835 c 2.19604,0 3.96877,1.772708 3.96877,3.968748 0,2.196044 -1.77273,3.968749 -3.96877,3.968749 -2.19604,0 -3.96874,-1.772705 -3.96874,-3.968749 0,-2.19604 1.7727,-3.968748 3.96874,-3.968748 z m 0,18.917705 c -3.30727,0 -6.23093,-1.693333 -7.93748,-4.259791 0.0397,-2.632604 5.29165,-4.074582 7.93748,-4.074582 2.6326,0 7.89781,1.441978 7.93751,4.074582 -1.70656,2.566458 -4.63022,4.259791 -7.93751,4.259791 z"
       id="path13538"
       style="fill:#000000;fill-opacity:1;stroke-width:1.32292" /></g></svg>
