<?xml version="1.0" encoding="UTF-8" standalone="no"?>
<svg
   height="24"
   viewBox="0 0 24 24"
   width="24"
   version="1.1"
   id="svg2"
   sodipodi:docname="contacts.svg"
   inkscape:version="1.3.2 (091e20e, 2023-11-25, custom)"
   xml:space="preserve"
   xmlns:inkscape="http://www.inkscape.org/namespaces/inkscape"
   xmlns:sodipodi="http://sodipodi.sourceforge.net/DTD/sodipodi-0.dtd"
   xmlns="http://www.w3.org/2000/svg"
   xmlns:svg="http://www.w3.org/2000/svg"><defs
     id="defs2"><symbol
       id="OverThePhone"
       style="stroke-linejoin:miter;stroke-miterlimit:10"><title
         id="title13122">Over the Phone</title><rect
         x="80"
         y="65"
         width="250"
         height="120"
         style="stroke:none"
         id="rect13124" /><path
         d="m 124,179 -15,41 -21,-16 -35,76 40,-49 32,17 53,-70"
         style="stroke:none"
         id="path13126" /><rect
         x="75"
         y="60"
         width="250"
         height="120"
         style="fill:#eeeeee;stroke-width:3.5"
         id="rect13128" /><path
         d="m 120,175 -15,41 -21,-16 -35,76 40,-49 32,17 53,-70"
         style="fill:#eeeeee;stroke-width:3.5"
         id="path13130" /><rect
         x="80"
         y="65"
         width="235"
         height="105"
         style="fill:#ffffff;stroke:none"
         id="rect13132" /><path
         d="m 125,166 -18,53 -22,-15 -26,56 29,-40 28,12 55,-68"
         style="fill:#ffffff;stroke:none"
         id="path13134" /></symbol><symbol
       id="SquaredBalloon"
       style="stroke-linejoin:miter;stroke-miterlimit:10"><title
         id="title13107">Squared Balloon</title><rect
         x="80"
         y="65"
         width="250"
         height="140"
         rx="17"
         style="stroke:none"
         id="rect13109" /><path
         d="m 126,199 25,43 30,-43"
         style="stroke:none"
         id="path13111" /><rect
         x="75"
         y="60"
         width="250"
         height="140"
         rx="15"
         style="fill:#eeeeee;stroke-width:3.5"
         id="rect13113" /><path
         d="m 120,195 25,43 30,-43"
         style="fill:#eeeeee;stroke-width:3.5"
         id="path13115" /><rect
         x="80"
         y="65"
         width="235"
         height="125"
         rx="10"
         style="fill:#ffffff;stroke:none"
         id="rect13117" /><path
         d="m 118,180 25,43 30,-43"
         style="fill:#ffffff;stroke:none"
         id="path13119" /></symbol><symbol
       id="RoundedBalloon"
       style="stroke-linejoin:miter;stroke-miterlimit:10"><title
         id="title13092">Rounded Balloon</title><rect
         x="80"
         y="65"
         width="250"
         height="120"
         rx="32"
         style="stroke:none"
         id="rect13094" /><path
         d="m 124,179 -30,53 78,-53"
         style="stroke:none"
         id="path13096" /><rect
         x="75"
         y="60"
         width="250"
         height="120"
         rx="30"
         style="fill:#eeeeee;stroke-width:3.5"
         id="rect13098" /><path
         d="m 120,175 -30,53 78,-53"
         style="fill:#eeeeee;stroke-width:3.5"
         id="path13100" /><rect
         x="80"
         y="65"
         width="235"
         height="105"
         rx="25"
         style="fill:#ffffff;stroke:none"
         id="rect13102" /><path
         d="m 132,160 -30,53 78,-53"
         style="fill:#ffffff;stroke:none"
         id="path13104" /></symbol></defs><sodipodi:namedview
     id="namedview2"
     pagecolor="#ffffff"
     bordercolor="#000000"
     borderopacity="0.25"
     inkscape:showpageshadow="2"
     inkscape:pageopacity="0.0"
     inkscape:pagecheckerboard="0"
     inkscape:deskcolor="#d1d1d1"
     inkscape:zoom="14.760854"
     inkscape:cx="7.5537635"
     inkscape:cy="8.9764454"
     inkscape:window-width="1366"
     inkscape:window-height="697"
     inkscape:window-x="-8"
     inkscape:window-y="-8"
     inkscape:window-maximized="1"
     inkscape:current-layer="svg2" /><path
     d="M0 0h24v24H0z"
     fill="none"
     id="path1" /><path
     d="M 12.000005,5e-8 C 6.036001,5e-8 1.200005,4.835999 1.200005,10.799997 c 0,5.004 3.407997,9.204002 8.028016,10.428 L 12.000005,24 14.772006,21.227997 c 4.619992,-1.223998 8.027989,-5.424 8.027989,-10.428 C 22.799995,4.8359962 17.963999,4.9999999e-8 12.000005,5e-8 Z m 0,2.40000155 c 1.991998,0 3.600017,1.6079996 3.600017,3.5999981 0,1.9920023 -1.608019,3.5999993 -3.600017,3.5999993 -1.991999,0 -3.599991,-1.607997 -3.599991,-3.5999993 0,-1.9919985 1.607992,-3.5999981 3.599991,-3.5999981 z m 0,17.1599964 c -2.999981,0 -5.651993,-1.535999 -7.199982,-3.863999 C 4.836033,13.307999 9.600008,12 12.000005,12 c 2.387996,0 7.163997,1.307999 7.200008,3.695999 -1.547998,2.328 -4.200011,3.863999 -7.200008,3.863999 z"
     id="path13538"
     style="fill:#dddddd;fill-opacity:1;stroke-width:1.2" /></svg>
