<?xml version="1.0" encoding="UTF-8" standalone="no"?>
<svg
   fill="#ffffff"
   width="64px"
   height="64px"
   viewBox="-4.5 0 32 32"
   version="1.1"
   id="svg1"
   xmlns="http://www.w3.org/2000/svg"
   xmlns:svg="http://www.w3.org/2000/svg">
  <defs
     id="defs1" />
  <g
     id="SVGRepo_bgCarrier"
     stroke-width="0"
     style="fill:#ffffff;stroke:none"
     transform="matrix(1.3547291,0,0,1.3547291,-4.1402217,-5.6758443)" />
  <g
     id="SVGRepo_tracerCarrier"
     stroke-linecap="round"
     stroke-linejoin="round"
     style="fill:#ffffff;stroke:none"
     transform="matrix(1.3547291,0,0,1.3547291,-4.1402217,-5.6758443)" />
  <g
     id="SVGRepo_iconCarrier"
     style="fill:#ffffff;stroke:none"
     transform="matrix(1.3547291,0,0,1.3547291,-4.1402217,-5.6758443)">
    <title
       id="title1">home</title>
    <path
       d="m 19.469,12.594 3.625,3.313 c 0.438,0.406 0.313,0.719 -0.281,0.719 h -2.719 v 8.656 c 0,0.594 -0.5,1.125 -1.094,1.125 h -4.719 v -6.063 c 0,-0.594 -0.531,-1.125 -1.125,-1.125 h -2.969 c -0.594,0 -1.125,0.531 -1.125,1.125 v 6.063 H 4.343 c -0.594,0 -1.125,-0.531 -1.125,-1.125 V 16.626 H 0.53 c -0.594,0 -0.719,-0.313 -0.281,-0.719 L 10.843,6.282 c 0.438,-0.406 1.188,-0.406 1.656,0 l 2.406,2.156 V 6.719 c 0,-0.594 0.531,-1.125 1.125,-1.125 h 2.344 c 0.594,0 1.094,0.531 1.094,1.125 v 5.875 z"
       id="path1"
       style="fill:#ffffff;stroke:none" />
  </g>
</svg>
