<!DOCTYPE svg PUBLIC "-//W3C//DTD SVG 1.1//EN" "http://www.w3.org/Graphics/SVG/1.1/DTD/svg11.dtd">
<!-- Uploaded to: SVG Repo, www.svgrepo.com, Transformed by: SVG Repo Mixer Tools -->
<svg fill="#ffffff" width="64px" height="64px" viewBox="0 0 32 32" xmlns="http://www.w3.org/2000/svg">
<g id="SVGRepo_bgCarrier" stroke-width="0"/>
<g id="SVGRepo_tracerCarrier" stroke-linecap="round" stroke-linejoin="round"/>
<g id="SVGRepo_iconCarrier"> <path d="M1,15H12a1,1,0,0,0,1-1V4.17a1,1,0,0,0-.35-.77,1,1,0,0,0-.81-.22L.84,5A1,1,0,0,0,0,6v8A1,1,0,0,0,1,15ZM2,6.85l9-1.5V13H2Z"/> <path d="M30.84,0l-15,2.5a1,1,0,0,0-.84,1V14a1,1,0,0,0,1,1H31a1,1,0,0,0,1-1V1a1,1,0,0,0-.35-.76A1,1,0,0,0,30.84,0ZM30,13H17V4.35L30,2.18Z"/> <path d="M.84,27l11,1.83H12a1,1,0,0,0,1-1V18a1,1,0,0,0-1-1H1a1,1,0,0,0-1,1v8A1,1,0,0,0,.84,27ZM2,19h9v7.65l-9-1.5Z"/> <path d="M31,17H16a1,1,0,0,0-1,1V28.5a1,1,0,0,0,.84,1l15,2.5H31a1,1,0,0,0,.65-.24A1,1,0,0,0,32,31V18A1,1,0,0,0,31,17ZM30,29.82,17,27.65V19H30Z"/> </g>
</svg>