<?xml version="1.0" encoding="UTF-8" standalone="no"?>
<!-- Created with Inkscape (http://www.inkscape.org/) -->

<svg
   width="6.3499999mm"
   height="6.3499999mm"
   viewBox="0 0 6.3499999 6.3499999"
   version="1.1"
   id="svg5"
   inkscape:version="1.3.2 (091e20e, 2023-11-25, custom)"
   sodipodi:docname="logobranca.svg"
   inkscape:export-filename="./logo_branca.png"
   inkscape:export-xdpi="96"
   inkscape:export-ydpi="96"
   xmlns:inkscape="http://www.inkscape.org/namespaces/inkscape"
   xmlns:sodipodi="http://sodipodi.sourceforge.net/DTD/sodipodi-0.dtd"
   xmlns="http://www.w3.org/2000/svg"
   xmlns:svg="http://www.w3.org/2000/svg">
  <sodipodi:namedview
     id="namedview7"
     pagecolor="#979797"
     bordercolor="#666666"
     borderopacity="1.0"
     inkscape:pageshadow="2"
     inkscape:pageopacity="0"
     inkscape:pagecheckerboard="false"
     inkscape:document-units="mm"
     showgrid="false"
     width="100mm"
     inkscape:zoom="15.0625"
     inkscape:cx="9.4937758"
     inkscape:cy="11.286307"
     inkscape:window-width="1366"
     inkscape:window-height="705"
     inkscape:window-x="-8"
     inkscape:window-y="-8"
     inkscape:window-maximized="1"
     inkscape:current-layer="layer1"
     inkscape:showpageshadow="false"
     inkscape:deskcolor="#4c4c4c"
     showborder="false"
     borderlayer="false"
     shape-rendering="crispEdges" />
  <defs
     id="defs2">
    <rect
       x="1328.6982"
       y="406.21759"
       width="675.21783"
       height="336.92963"
       id="rect11245" />
    <rect
       x="1328.6982"
       y="406.21759"
       width="675.21783"
       height="336.92963"
       id="rect24255" />
    <rect
       x="1328.6982"
       y="406.21759"
       width="675.21783"
       height="336.92963"
       id="rect26871" />
    <rect
       x="1328.6982"
       y="406.21759"
       width="675.21783"
       height="336.92963"
       id="rect26873" />
    <clipPath
       clipPathUnits="userSpaceOnUse"
       id="clipPath26133">
      <path
         id="path26135"
         style="fill:#ffe6d5;stroke-width:1;stroke-linecap:round;stroke-linejoin:round;paint-order:markers stroke fill"
         d="M -213.18329,299.51315 H 83.816724 v 78.42012 H -213.18329 Z" />
    </clipPath>
    <clipPath
       clipPathUnits="userSpaceOnUse"
       id="clipPath9041">
      <rect
         style="opacity:0.311947;fill:#008080;fill-opacity:1;stroke:none;stroke-width:2;stroke-linecap:round;stroke-linejoin:round;paint-order:markers stroke fill"
         id="rect9043"
         width="719.18512"
         height="669.04785"
         x="-1932.839"
         y="-1354.2963" />
    </clipPath>
    <filter
       height="1.1431116"
       width="1.0853842"
       y="-0.071555786"
       x="-0.042692166"
       style="color-interpolation-filters:sRGB"
       inkscape:label="Blur"
       id="filter9825">
      <feGaussianBlur
         stdDeviation="21.1559 19.9476"
         result="blur"
         id="feGaussianBlur9819" />
      <feColorMatrix
         values="1 0 0 0 0 0 1 0 0 0 0 0 1 0 0 0 0 0 50 0 "
         result="colormatrix"
         id="feColorMatrix9821" />
      <feComposite
         in="colormatrix"
         in2="SourceGraphic"
         operator="in"
         id="feComposite9823" />
    </filter>
    <clipPath
       clipPathUnits="userSpaceOnUse"
       id="clipPath9925">
      <rect
         style="opacity:0.311947;fill:#008080;fill-opacity:1;stroke:none;stroke-width:2;stroke-linecap:round;stroke-linejoin:round;paint-order:markers stroke fill"
         id="rect9927"
         width="1189.3085"
         height="669.04779"
         x="-2167.9006"
         y="-288.11829" />
    </clipPath>
    <rect
       x="1328.6982"
       y="406.21759"
       width="675.21783"
       height="336.92963"
       id="rect11245-3" />
    <rect
       x="1328.6982"
       y="406.21759"
       width="675.21783"
       height="336.92963"
       id="rect24255-4" />
    <rect
       x="1328.6982"
       y="406.21759"
       width="675.21783"
       height="336.92963"
       id="rect26871-2" />
    <rect
       x="1328.6982"
       y="406.21759"
       width="675.21783"
       height="336.92963"
       id="rect26873-3" />
    <clipPath
       clipPathUnits="userSpaceOnUse"
       id="clipPath26133-2">
      <path
         id="path26135-3"
         style="fill:#ffe6d5;stroke-width:1;stroke-linecap:round;stroke-linejoin:round;paint-order:markers stroke fill"
         d="M -213.18329,299.51315 H 83.816724 v 78.42012 H -213.18329 Z" />
    </clipPath>
    <clipPath
       clipPathUnits="userSpaceOnUse"
       id="clipPath9041-0">
      <rect
         style="opacity:0.311947;fill:#008080;fill-opacity:1;stroke:none;stroke-width:2;stroke-linecap:round;stroke-linejoin:round;paint-order:markers stroke fill"
         id="rect9043-2"
         width="719.18512"
         height="669.04785"
         x="-1932.839"
         y="-1354.2963" />
    </clipPath>
    <filter
       height="1.1431116"
       width="1.0853842"
       y="-0.071555786"
       x="-0.042692166"
       style="color-interpolation-filters:sRGB"
       inkscape:label="Blur"
       id="filter9825-9">
      <feGaussianBlur
         stdDeviation="21.1559 19.9476"
         result="blur"
         id="feGaussianBlur9819-9" />
      <feColorMatrix
         values="1 0 0 0 0 0 1 0 0 0 0 0 1 0 0 0 0 0 50 0 "
         result="colormatrix"
         id="feColorMatrix9821-3" />
      <feComposite
         in="colormatrix"
         in2="SourceGraphic"
         operator="in"
         id="feComposite9823-0" />
    </filter>
    <clipPath
       clipPathUnits="userSpaceOnUse"
       id="clipPath9925-5">
      <rect
         style="opacity:0.311947;fill:#008080;fill-opacity:1;stroke:none;stroke-width:2;stroke-linecap:round;stroke-linejoin:round;paint-order:markers stroke fill"
         id="rect9927-6"
         width="1189.3085"
         height="669.04779"
         x="-2167.9006"
         y="-288.11829" />
    </clipPath>
    <clipPath
       clipPathUnits="userSpaceOnUse"
       id="clipPath5212">
      <rect
         style="fill:#800000;fill-opacity:0.873585;stroke:none;stroke-width:2.565;stroke-linecap:round;stroke-linejoin:round;paint-order:stroke fill markers"
         id="rect5214"
         width="73.076828"
         height="72.77977"
         x="581.6441"
         y="92.088692" />
    </clipPath>
    <rect
       x="1328.6982"
       y="406.21759"
       width="675.21783"
       height="336.92963"
       id="rect11245-7" />
    <rect
       x="1328.6982"
       y="406.21759"
       width="675.21783"
       height="336.92963"
       id="rect24255-43" />
    <rect
       x="1328.6982"
       y="406.21759"
       width="675.21783"
       height="336.92963"
       id="rect26871-28" />
    <rect
       x="1328.6982"
       y="406.21759"
       width="675.21783"
       height="336.92963"
       id="rect26873-4" />
    <clipPath
       clipPathUnits="userSpaceOnUse"
       id="clipPath26133-8">
      <path
         id="path26135-9"
         style="fill:#ffe6d5;stroke-width:1;stroke-linecap:round;stroke-linejoin:round;paint-order:markers stroke fill"
         d="M -213.18329,299.51315 H 83.816724 v 78.42012 H -213.18329 Z" />
    </clipPath>
    <clipPath
       clipPathUnits="userSpaceOnUse"
       id="clipPath9041-1">
      <rect
         style="opacity:0.311947;fill:#008080;fill-opacity:1;stroke:none;stroke-width:2;stroke-linecap:round;stroke-linejoin:round;paint-order:markers stroke fill"
         id="rect9043-4"
         width="719.18512"
         height="669.04785"
         x="-1932.839"
         y="-1354.2963" />
    </clipPath>
    <filter
       height="1.1431116"
       width="1.0853842"
       y="-0.071555786"
       x="-0.042692166"
       style="color-interpolation-filters:sRGB"
       inkscape:label="Blur"
       id="filter9825-7">
      <feGaussianBlur
         stdDeviation="21.1559 19.9476"
         result="blur"
         id="feGaussianBlur9819-3" />
      <feColorMatrix
         values="1 0 0 0 0 0 1 0 0 0 0 0 1 0 0 0 0 0 50 0 "
         result="colormatrix"
         id="feColorMatrix9821-8" />
      <feComposite
         in="colormatrix"
         in2="SourceGraphic"
         operator="in"
         id="feComposite9823-5" />
    </filter>
    <clipPath
       clipPathUnits="userSpaceOnUse"
       id="clipPath9925-4">
      <rect
         style="opacity:0.311947;fill:#008080;fill-opacity:1;stroke:none;stroke-width:2;stroke-linecap:round;stroke-linejoin:round;paint-order:markers stroke fill"
         id="rect9927-7"
         width="1189.3085"
         height="669.04779"
         x="-2167.9006"
         y="-288.11829" />
    </clipPath>
    <rect
       x="1328.6982"
       y="406.21759"
       width="675.21783"
       height="336.92963"
       id="rect11245-3-2" />
    <rect
       x="1328.6982"
       y="406.21759"
       width="675.21783"
       height="336.92963"
       id="rect24255-4-8" />
    <rect
       x="1328.6982"
       y="406.21759"
       width="675.21783"
       height="336.92963"
       id="rect26871-2-8" />
    <rect
       x="1328.6982"
       y="406.21759"
       width="675.21783"
       height="336.92963"
       id="rect26873-3-4" />
    <clipPath
       clipPathUnits="userSpaceOnUse"
       id="clipPath26133-2-0">
      <path
         id="path26135-3-0"
         style="fill:#ffe6d5;stroke-width:1;stroke-linecap:round;stroke-linejoin:round;paint-order:markers stroke fill"
         d="M -213.18329,299.51315 H 83.816724 v 78.42012 H -213.18329 Z" />
    </clipPath>
    <clipPath
       clipPathUnits="userSpaceOnUse"
       id="clipPath9041-0-3">
      <rect
         style="opacity:0.311947;fill:#008080;fill-opacity:1;stroke:none;stroke-width:2;stroke-linecap:round;stroke-linejoin:round;paint-order:markers stroke fill"
         id="rect9043-2-9"
         width="719.18512"
         height="669.04785"
         x="-1932.839"
         y="-1354.2963" />
    </clipPath>
    <filter
       height="1.1431116"
       width="1.0853842"
       y="-0.071555786"
       x="-0.042692166"
       style="color-interpolation-filters:sRGB"
       inkscape:label="Blur"
       id="filter9825-9-7">
      <feGaussianBlur
         stdDeviation="21.1559 19.9476"
         result="blur"
         id="feGaussianBlur9819-9-9" />
      <feColorMatrix
         values="1 0 0 0 0 0 1 0 0 0 0 0 1 0 0 0 0 0 50 0 "
         result="colormatrix"
         id="feColorMatrix9821-3-6" />
      <feComposite
         in="colormatrix"
         in2="SourceGraphic"
         operator="in"
         id="feComposite9823-0-3" />
    </filter>
    <clipPath
       clipPathUnits="userSpaceOnUse"
       id="clipPath9925-5-5">
      <rect
         style="opacity:0.311947;fill:#008080;fill-opacity:1;stroke:none;stroke-width:2;stroke-linecap:round;stroke-linejoin:round;paint-order:markers stroke fill"
         id="rect9927-6-3"
         width="1189.3085"
         height="669.04779"
         x="-2167.9006"
         y="-288.11829" />
    </clipPath>
    <clipPath
       clipPathUnits="userSpaceOnUse"
       id="clipPath5212-9">
      <rect
         style="fill:#800000;fill-opacity:0.873585;stroke:none;stroke-width:2.565;stroke-linecap:round;stroke-linejoin:round;paint-order:stroke fill markers"
         id="rect5214-2"
         width="73.076828"
         height="72.77977"
         x="581.6441"
         y="92.088692" />
    </clipPath>
  </defs>
  <g
     inkscape:groupmode="layer"
     id="layer2"
     inkscape:label="Camada 2" />
  <g
     inkscape:label="Camada 1"
     inkscape:groupmode="layer"
     id="layer1">
    <g
       id="layer2-9"
       inkscape:label="Camada 2" />
    <rect
       style="fill:none;fill-opacity:0.147287;stroke:none;stroke-width:30.0289;stroke-linecap:round;stroke-linejoin:round;paint-order:stroke fill markers"
       id="rect1"
       width="6.3499999"
       height="6.3499999"
       x="-4.3862701e-06"
       y="0" />
    <path
       id="path4626"
       style="color:#000000;fill:#dddddd;fill-opacity:1;stroke-width:0.0529164;stroke-linecap:round;stroke-linejoin:round;-inkscape-stroke:none;paint-order:markers stroke fill"
       d="m 3.1733276,0.52916662 c -0.086353,0.001635 -0.1725803,0.007515 -0.2583595,0.0175831 a 0.08897839,0.08897838 0 0 0 -0.078563,0.088353 V 1.5003664 a 0.08897839,0.08897838 0 0 0 0.1027367,0.08797 c 0.074062,-0.011637 0.1488994,-0.017212 0.2238496,-0.018403 v 3.2102422 c -0.3017282,-0.004 -0.5964175,-0.09212 -0.85006,-0.2558985 A 0.08897839,0.08897838 0 0 0 2.1756847,4.5989846 V 5.557387 a 0.08897839,0.08897838 0 0 0 0.056632,0.082884 c 0.3003799,0.1170562 0.6196754,0.1782836 0.9420497,0.1805617 a 0.08897839,0.08897838 0 0 0 6.289e-4,0 C 3.5139144,5.8206374 3.849687,5.7553409 4.1639697,5.6284851 a 0.08897839,0.08897838 0 0 0 0.055703,-0.082474 V 5.3477843 4.5672639 1.7827351 0.89709919 0.80398804 A 0.08897839,0.08897838 0 0 0 4.16397,0.72151427 C 3.8496874,0.59465802 3.5139147,0.52934513 3.1749956,0.52916662 a 0.08897839,0.08897838 0 0 0 -0.00279,0.001149 z m 0.00238,0.17807334 c 0.2964325,2.4453e-4 0.5888666,0.0584686 0.8660021,0.16278726 v 0.027072 0.88563588 2.7845288 0.7805204 0.1321879 C 3.7644425,5.5843401 3.4718736,5.6426483 3.1752976,5.6428413 2.8944382,5.6408218 2.6174463,5.5864104 2.3536497,5.490828 V 4.7491659 C 2.606648,4.8826171 2.8869167,4.9575104 3.1744771,4.959069 a 0.08897839,0.08897838 0 0 0 0.0058,-1.953e-4 c 0.027043,-0.00159 0.053972,-0.0038 0.080915,-0.00662 a 0.08897839,0.08897838 0 0 0 0.079685,-0.08849 V 1.4862015 a 0.08897839,0.08897838 0 0 0 -0.079685,-0.088462 c -0.026943,-0.00282 -0.053872,-0.00502 -0.080915,-0.00662 a 0.08897839,0.08897838 0 0 0 -0.00602,-1.914e-4 c -0.053589,4.234e-4 -0.1066711,0.00788 -0.1599704,0.013126 v -0.685958 c 0.053772,-0.004577 0.1074494,-0.009814 0.1614209,-0.0108561 z m 1.2399496,0.14848561 a 0.08897839,0.08897838 0 0 0 -0.081462,0.0885991 V 2.035106 a 0.08897839,0.08897838 0 0 0 0.023463,0.06016 c 0.270714,0.2946116 0.4216871,0.6796456 0.4234437,1.0797336 -0.00176,0.4000883 -0.1527297,0.7851216 -0.4234437,1.0797337 a 0.08897839,0.08897838 0 0 0 -0.023463,0.060132 v 1.0907814 a 0.08897839,0.08897838 0 0 0 0.1324066,0.077634 C 5.3023987,5.0157721 5.8205151,4.1326611 5.8208288,3.1749996 5.8205147,2.2173387 5.3023979,1.3342268 4.4666018,0.86671843 A 0.08897839,0.08897838 0 0 0 4.4156572,0.85572557 Z M 1.934334,0.86212457 A 0.08897839,0.08897838 0 0 0 1.88339,0.87311727 C 1.0496619,1.3394634 0.53187672,2.2194967 0.52916236,3.1747809 a 0.08897839,0.08897838 0 0 0 0,4.074e-4 C 0.53187685,4.1304757 1.049662,5.0105358 1.8833895,5.4768819 A 0.08897839,0.08897838 0 0 0 2.015796,5.3992483 V 4.3148658 A 0.08897839,0.08897838 0 0 0 1.9923336,4.2547333 C 1.7216195,3.9601212 1.5706462,3.5750879 1.5688898,3.1749996 1.5706467,2.7749116 1.7216197,2.3898776 1.9923336,2.0952659 a 0.08897839,0.08897838 0 0 0 0.023462,-0.06016 V 0.95075089 A 0.08897839,0.08897838 0 0 0 1.934334,0.86212457 Z M 4.5121592,1.1082607 C 5.2117534,1.5607803 5.6425616,2.3346205 5.6428374,3.1749996 5.6425639,4.015379 5.2117538,4.7892186 4.5121592,5.241739 V 4.3443169 C 4.7965335,4.0209299 4.9572827,3.6069159 4.9590655,3.1754098 a 0.08897839,0.08897838 0 0 0 0,-2.73e-5 0.08897839,0.08897838 0 0 0 0,-2.75e-5 0.08897839,0.08897838 0 0 0 0,-2.73e-5 0.08897839,0.08897838 0 0 0 0,-2.73e-5 0.08897839,0.08897838 0 0 0 0,-2.74e-5 0.08897839,0.08897838 0 0 0 0,-2.73e-5 0.08897839,0.08897838 0 0 0 0,-2.73e-5 0.08897839,0.08897838 0 0 0 0,-2.75e-5 0.08897839,0.08897838 0 0 0 0,-2.73e-5 0.08897839,0.08897838 0 0 0 0,-2.72e-5 0.08897839,0.08897838 0 0 0 0,-2.73e-5 0.08897839,0.08897838 0 0 0 0,-2.75e-5 0.08897839,0.08897838 0 0 0 0,-2.73e-5 0.08897839,0.08897838 0 0 0 0,-2.73e-5 0.08897839,0.08897838 0 0 0 0,-2.74e-5 0.08897839,0.08897838 0 0 0 0,-2.73e-5 0.08897839,0.08897838 0 0 0 0,-2.73e-5 0.08897839,0.08897838 0 0 0 0,-2.75e-5 0.08897839,0.08897838 0 0 0 0,-2.73e-5 0.08897839,0.08897838 0 0 0 0,-2.73e-5 0.08897839,0.08897838 0 0 0 0,-2.74e-5 0.08897839,0.08897838 0 0 0 0,-2.73e-5 0.08897839,0.08897838 0 0 0 0,-2.73e-5 0.08897839,0.08897838 0 0 0 0,-2.75e-5 0.08897839,0.08897838 0 0 0 0,-2.73e-5 0.08897839,0.08897838 0 0 0 0,-2.73e-5 0.08897839,0.08897838 0 0 0 0,-2.74e-5 0.08897839,0.08897838 0 0 0 0,-2.73e-5 0.08897839,0.08897838 0 0 0 0,-2.73e-5 0.08897839,0.08897838 0 0 0 0,-2.73e-5 C 4.9572803,2.7430839 4.7965335,2.3290417 4.5121592,2.0056549 Z m -2.6743545,0.00629 V 2.0056549 C 1.5534307,2.3290417 1.3927091,2.7430837 1.3909259,3.1745895 a 0.08897839,0.08897838 0 0 0 0,8.203e-4 c 0.00178,0.4315061 0.1625045,0.8455201 0.4468788,1.1689071 V 5.2354495 C 1.1401206,4.7841936 0.70964826,4.0132127 0.70712634,3.1751909 v -1.914e-4 c -2e-7,-7.03e-5 1.6e-7,-1.484e-4 0,-2.187e-4 0.002522,-0.8380221 0.43299416,-1.608975 1.13067836,-2.0602301 z" />
  </g>
</svg>
