<?xml version="1.0" encoding="UTF-8" standalone="no"?>
<!-- Created with Inkscape (http://www.inkscape.org/) -->

<svg
   width="135.46666mm"
   height="135.46666mm"
   viewBox="0 0 135.46666 135.46666"
   version="1.1"
   id="svg5"
   inkscape:version="1.2.1 (9c6d41e410, 2022-07-14)"
   sodipodi:docname="logobranca.svg"
   inkscape:export-filename="./logo_branca.png"
   inkscape:export-xdpi="96"
   inkscape:export-ydpi="96"
   xmlns:inkscape="http://www.inkscape.org/namespaces/inkscape"
   xmlns:sodipodi="http://sodipodi.sourceforge.net/DTD/sodipodi-0.dtd"
   xmlns="http://www.w3.org/2000/svg"
   xmlns:svg="http://www.w3.org/2000/svg">
  <sodipodi:namedview
     id="namedview7"
     pagecolor="#979797"
     bordercolor="#666666"
     borderopacity="1.0"
     inkscape:pageshadow="2"
     inkscape:pageopacity="0"
     inkscape:pagecheckerboard="false"
     inkscape:document-units="mm"
     showgrid="false"
     width="100mm"
     inkscape:zoom="0.94140627"
     inkscape:cx="251.75103"
     inkscape:cy="256"
     inkscape:window-width="1366"
     inkscape:window-height="705"
     inkscape:window-x="-8"
     inkscape:window-y="-8"
     inkscape:window-maximized="1"
     inkscape:current-layer="layer1"
     inkscape:showpageshadow="false"
     inkscape:deskcolor="#4c4c4c"
     showborder="false"
     borderlayer="false"
     shape-rendering="crispEdges" />
  <defs
     id="defs2">
    <rect
       x="1328.6982"
       y="406.21759"
       width="675.21783"
       height="336.92963"
       id="rect11245" />
    <rect
       x="1328.6982"
       y="406.21759"
       width="675.21783"
       height="336.92963"
       id="rect24255" />
    <rect
       x="1328.6982"
       y="406.21759"
       width="675.21783"
       height="336.92963"
       id="rect26871" />
    <rect
       x="1328.6982"
       y="406.21759"
       width="675.21783"
       height="336.92963"
       id="rect26873" />
    <clipPath
       clipPathUnits="userSpaceOnUse"
       id="clipPath26133">
      <path
         id="path26135"
         style="fill:#ffe6d5;stroke-width:1;stroke-linecap:round;stroke-linejoin:round;paint-order:markers stroke fill"
         d="M -213.18329,299.51315 H 83.816724 v 78.42012 H -213.18329 Z" />
    </clipPath>
    <clipPath
       clipPathUnits="userSpaceOnUse"
       id="clipPath9041">
      <rect
         style="opacity:0.311947;fill:#008080;fill-opacity:1;stroke:none;stroke-width:2;stroke-linecap:round;stroke-linejoin:round;paint-order:markers stroke fill"
         id="rect9043"
         width="719.18512"
         height="669.04785"
         x="-1932.839"
         y="-1354.2963" />
    </clipPath>
    <filter
       height="1.1431116"
       width="1.0853842"
       y="-0.071555786"
       x="-0.042692166"
       style="color-interpolation-filters:sRGB"
       inkscape:label="Blur"
       id="filter9825">
      <feGaussianBlur
         stdDeviation="21.1559 19.9476"
         result="blur"
         id="feGaussianBlur9819" />
      <feColorMatrix
         values="1 0 0 0 0 0 1 0 0 0 0 0 1 0 0 0 0 0 50 0 "
         result="colormatrix"
         id="feColorMatrix9821" />
      <feComposite
         in="colormatrix"
         in2="SourceGraphic"
         operator="in"
         id="feComposite9823" />
    </filter>
    <clipPath
       clipPathUnits="userSpaceOnUse"
       id="clipPath9925">
      <rect
         style="opacity:0.311947;fill:#008080;fill-opacity:1;stroke:none;stroke-width:2;stroke-linecap:round;stroke-linejoin:round;paint-order:markers stroke fill"
         id="rect9927"
         width="1189.3085"
         height="669.04779"
         x="-2167.9006"
         y="-288.11829" />
    </clipPath>
    <rect
       x="1328.6982"
       y="406.21759"
       width="675.21783"
       height="336.92963"
       id="rect11245-3" />
    <rect
       x="1328.6982"
       y="406.21759"
       width="675.21783"
       height="336.92963"
       id="rect24255-4" />
    <rect
       x="1328.6982"
       y="406.21759"
       width="675.21783"
       height="336.92963"
       id="rect26871-2" />
    <rect
       x="1328.6982"
       y="406.21759"
       width="675.21783"
       height="336.92963"
       id="rect26873-3" />
    <clipPath
       clipPathUnits="userSpaceOnUse"
       id="clipPath26133-2">
      <path
         id="path26135-3"
         style="fill:#ffe6d5;stroke-width:1;stroke-linecap:round;stroke-linejoin:round;paint-order:markers stroke fill"
         d="M -213.18329,299.51315 H 83.816724 v 78.42012 H -213.18329 Z" />
    </clipPath>
    <clipPath
       clipPathUnits="userSpaceOnUse"
       id="clipPath9041-0">
      <rect
         style="opacity:0.311947;fill:#008080;fill-opacity:1;stroke:none;stroke-width:2;stroke-linecap:round;stroke-linejoin:round;paint-order:markers stroke fill"
         id="rect9043-2"
         width="719.18512"
         height="669.04785"
         x="-1932.839"
         y="-1354.2963" />
    </clipPath>
    <filter
       height="1.1431116"
       width="1.0853842"
       y="-0.071555786"
       x="-0.042692166"
       style="color-interpolation-filters:sRGB"
       inkscape:label="Blur"
       id="filter9825-9">
      <feGaussianBlur
         stdDeviation="21.1559 19.9476"
         result="blur"
         id="feGaussianBlur9819-9" />
      <feColorMatrix
         values="1 0 0 0 0 0 1 0 0 0 0 0 1 0 0 0 0 0 50 0 "
         result="colormatrix"
         id="feColorMatrix9821-3" />
      <feComposite
         in="colormatrix"
         in2="SourceGraphic"
         operator="in"
         id="feComposite9823-0" />
    </filter>
    <clipPath
       clipPathUnits="userSpaceOnUse"
       id="clipPath9925-5">
      <rect
         style="opacity:0.311947;fill:#008080;fill-opacity:1;stroke:none;stroke-width:2;stroke-linecap:round;stroke-linejoin:round;paint-order:markers stroke fill"
         id="rect9927-6"
         width="1189.3085"
         height="669.04779"
         x="-2167.9006"
         y="-288.11829" />
    </clipPath>
    <clipPath
       clipPathUnits="userSpaceOnUse"
       id="clipPath5212">
      <rect
         style="fill:#800000;fill-opacity:0.873585;stroke:none;stroke-width:2.565;stroke-linecap:round;stroke-linejoin:round;paint-order:stroke fill markers"
         id="rect5214"
         width="73.076828"
         height="72.77977"
         x="581.6441"
         y="92.088692" />
    </clipPath>
    <rect
       x="1328.6982"
       y="406.21759"
       width="675.21783"
       height="336.92963"
       id="rect11245-7" />
    <rect
       x="1328.6982"
       y="406.21759"
       width="675.21783"
       height="336.92963"
       id="rect24255-43" />
    <rect
       x="1328.6982"
       y="406.21759"
       width="675.21783"
       height="336.92963"
       id="rect26871-28" />
    <rect
       x="1328.6982"
       y="406.21759"
       width="675.21783"
       height="336.92963"
       id="rect26873-4" />
    <clipPath
       clipPathUnits="userSpaceOnUse"
       id="clipPath26133-8">
      <path
         id="path26135-9"
         style="fill:#ffe6d5;stroke-width:1;stroke-linecap:round;stroke-linejoin:round;paint-order:markers stroke fill"
         d="M -213.18329,299.51315 H 83.816724 v 78.42012 H -213.18329 Z" />
    </clipPath>
    <clipPath
       clipPathUnits="userSpaceOnUse"
       id="clipPath9041-1">
      <rect
         style="opacity:0.311947;fill:#008080;fill-opacity:1;stroke:none;stroke-width:2;stroke-linecap:round;stroke-linejoin:round;paint-order:markers stroke fill"
         id="rect9043-4"
         width="719.18512"
         height="669.04785"
         x="-1932.839"
         y="-1354.2963" />
    </clipPath>
    <filter
       height="1.1431116"
       width="1.0853842"
       y="-0.071555786"
       x="-0.042692166"
       style="color-interpolation-filters:sRGB"
       inkscape:label="Blur"
       id="filter9825-7">
      <feGaussianBlur
         stdDeviation="21.1559 19.9476"
         result="blur"
         id="feGaussianBlur9819-3" />
      <feColorMatrix
         values="1 0 0 0 0 0 1 0 0 0 0 0 1 0 0 0 0 0 50 0 "
         result="colormatrix"
         id="feColorMatrix9821-8" />
      <feComposite
         in="colormatrix"
         in2="SourceGraphic"
         operator="in"
         id="feComposite9823-5" />
    </filter>
    <clipPath
       clipPathUnits="userSpaceOnUse"
       id="clipPath9925-4">
      <rect
         style="opacity:0.311947;fill:#008080;fill-opacity:1;stroke:none;stroke-width:2;stroke-linecap:round;stroke-linejoin:round;paint-order:markers stroke fill"
         id="rect9927-7"
         width="1189.3085"
         height="669.04779"
         x="-2167.9006"
         y="-288.11829" />
    </clipPath>
    <rect
       x="1328.6982"
       y="406.21759"
       width="675.21783"
       height="336.92963"
       id="rect11245-3-2" />
    <rect
       x="1328.6982"
       y="406.21759"
       width="675.21783"
       height="336.92963"
       id="rect24255-4-8" />
    <rect
       x="1328.6982"
       y="406.21759"
       width="675.21783"
       height="336.92963"
       id="rect26871-2-8" />
    <rect
       x="1328.6982"
       y="406.21759"
       width="675.21783"
       height="336.92963"
       id="rect26873-3-4" />
    <clipPath
       clipPathUnits="userSpaceOnUse"
       id="clipPath26133-2-0">
      <path
         id="path26135-3-0"
         style="fill:#ffe6d5;stroke-width:1;stroke-linecap:round;stroke-linejoin:round;paint-order:markers stroke fill"
         d="M -213.18329,299.51315 H 83.816724 v 78.42012 H -213.18329 Z" />
    </clipPath>
    <clipPath
       clipPathUnits="userSpaceOnUse"
       id="clipPath9041-0-3">
      <rect
         style="opacity:0.311947;fill:#008080;fill-opacity:1;stroke:none;stroke-width:2;stroke-linecap:round;stroke-linejoin:round;paint-order:markers stroke fill"
         id="rect9043-2-9"
         width="719.18512"
         height="669.04785"
         x="-1932.839"
         y="-1354.2963" />
    </clipPath>
    <filter
       height="1.1431116"
       width="1.0853842"
       y="-0.071555786"
       x="-0.042692166"
       style="color-interpolation-filters:sRGB"
       inkscape:label="Blur"
       id="filter9825-9-7">
      <feGaussianBlur
         stdDeviation="21.1559 19.9476"
         result="blur"
         id="feGaussianBlur9819-9-9" />
      <feColorMatrix
         values="1 0 0 0 0 0 1 0 0 0 0 0 1 0 0 0 0 0 50 0 "
         result="colormatrix"
         id="feColorMatrix9821-3-6" />
      <feComposite
         in="colormatrix"
         in2="SourceGraphic"
         operator="in"
         id="feComposite9823-0-3" />
    </filter>
    <clipPath
       clipPathUnits="userSpaceOnUse"
       id="clipPath9925-5-5">
      <rect
         style="opacity:0.311947;fill:#008080;fill-opacity:1;stroke:none;stroke-width:2;stroke-linecap:round;stroke-linejoin:round;paint-order:markers stroke fill"
         id="rect9927-6-3"
         width="1189.3085"
         height="669.04779"
         x="-2167.9006"
         y="-288.11829" />
    </clipPath>
    <clipPath
       clipPathUnits="userSpaceOnUse"
       id="clipPath5212-9">
      <rect
         style="fill:#800000;fill-opacity:0.873585;stroke:none;stroke-width:2.565;stroke-linecap:round;stroke-linejoin:round;paint-order:stroke fill markers"
         id="rect5214-2"
         width="73.076828"
         height="72.77977"
         x="581.6441"
         y="92.088692" />
    </clipPath>
  </defs>
  <g
     inkscape:groupmode="layer"
     id="layer2"
     inkscape:label="Camada 2" />
  <g
     inkscape:label="Camada 1"
     inkscape:groupmode="layer"
     id="layer1">
    <path
       id="path4626"
       style="color:#000000;fill:#dddddd;fill-opacity:1;stroke-width:1.35466;stroke-linecap:round;stroke-linejoin:round;-inkscape-stroke:none;paint-order:markers stroke fill"
       d="M 67.69063,0 C 65.480005,0.04185487 63.272575,0.19237746 61.076628,0.45012741 A 2.2778468,2.2778465 0 0 0 59.065405,2.711965 v 22.150749 a 2.2778468,2.2778465 0 0 0 2.63006,2.252036 c 1.895973,-0.297912 3.811823,-0.440637 5.730549,-0.471128 v 82.182208 c -7.724231,-0.10245 -15.268277,-2.35826 -21.761526,-6.551 a 2.2778468,2.2778465 0 0 0 -3.513516,1.91251 v 24.5351 a 2.2778468,2.2778465 0 0 0 1.449787,2.12183 c 7.689726,2.99664 15.863691,4.56406 24.116473,4.62238 a 2.2778468,2.2778465 0 0 0 0.0161,0 c 8.676329,-0.005 17.272106,-1.67659 25.317745,-4.9241 a 2.2778468,2.2778465 0 0 0 1.425988,-2.11133 V 123.35661 103.37529 32.091354 9.4190735 7.0354282 A 2.2778468,2.2778465 0 0 0 93.051077,4.9240997 C 85.005441,1.6765799 76.409661,0.00456973 67.733332,0 a 2.2778468,2.2778465 0 0 0 -0.0714,0.02940179 z m 0.0609,4.5586775 c 7.588672,0.00626 15.074986,1.496795 22.169653,4.1673538 v 0.6930422 22.6722805 71.283936 19.98132 3.38401 c -7.09804,2.67182 -14.587802,4.16451 -22.180149,4.16945 -7.189999,-0.0517 -14.280993,-1.44463 -21.034184,-3.89154 v -18.98655 c 6.476755,3.41635 13.651633,5.33362 21.013181,5.37352 a 2.2778468,2.2778465 0 0 0 0.148412,-0.005 c 0.692309,-0.0408 1.381687,-0.0972 2.071423,-0.16941 a 2.2778468,2.2778465 0 0 0 2.039926,-2.26534 V 24.500092 a 2.2778468,2.2778465 0 0 0 -2.039926,-2.264638 c -0.689736,-0.07227 -1.379114,-0.128626 -2.071423,-0.169411 a 2.2778468,2.2778465 0 0 0 -0.154011,-0.0049 C 66.34254,22.071983 64.983645,22.263 63.619183,22.397162 V 4.8365947 C 64.995749,4.7194215 66.369888,4.585361 67.751533,4.5586775 Z M 99.494269,8.359909 a 2.2778467,2.2778465 0 0 0 -2.085428,2.268138 v 27.924001 a 2.2778467,2.2778465 0 0 0 0.60064,1.540093 c 6.930279,7.542061 10.795189,17.39893 10.840159,27.641183 -0.045,10.242261 -3.90988,20.099112 -10.840159,27.641181 a 2.2778467,2.2778465 0 0 0 -0.60064,1.539394 V 124.8379 a 2.2778467,2.2778465 0 0 0 3.389609,1.98742 C 122.19485,114.8571 135.45863,92.249458 135.46666,67.733324 135.45862,43.217206 122.19483,20.60954 100.79845,8.6413261 A 2.2778467,2.2778465 0 0 0 99.494269,8.359909 Z M 35.972395,8.5237189 A 2.2778467,2.2778465 0 0 0 34.668216,8.805136 C 13.324789,20.743598 0.06948915,43.272449 1.583436e-6,67.727725 a 2.2778467,2.2778465 0 0 0 0,0.01043 C 0.06949269,92.193511 13.324792,114.72305 34.668216,126.66151 a 2.2778467,2.2778465 0 0 0 3.389607,-1.98742 V 96.913899 A 2.2778467,2.2778465 0 0 0 37.457186,95.374505 C 30.526903,87.832436 26.661988,77.975585 26.617025,67.733324 26.662,57.491071 30.526909,47.634202 37.457186,40.092141 a 2.2778467,2.2778465 0 0 0 0.600637,-1.540093 V 10.792557 A 2.2778467,2.2778465 0 0 0 35.972395,8.5237189 Z m 65.992325,6.3010841 c 17.90961,11.584506 28.9383,31.394816 28.94536,52.908521 -0.007,21.513713 -11.03574,41.324006 -28.94536,52.908526 V 97.667846 c 7.27998,-8.278708 11.39516,-18.877465 11.4408,-29.924021 a 2.2778467,2.2778465 0 0 0 0,-6.99e-4 2.2778467,2.2778465 0 0 0 0,-7.03e-4 2.2778467,2.2778465 0 0 0 0,-6.99e-4 2.2778467,2.2778465 0 0 0 0,-6.99e-4 2.2778467,2.2778465 0 0 0 0,-7.02e-4 2.2778467,2.2778465 0 0 0 0,-6.99e-4 2.2778467,2.2778465 0 0 0 0,-6.99e-4 2.2778467,2.2778465 0 0 0 0,-7.03e-4 2.2778467,2.2778465 0 0 0 0,-6.99e-4 2.2778467,2.2778465 0 0 0 0,-6.98e-4 2.2778467,2.2778465 0 0 0 0,-6.99e-4 2.2778467,2.2778465 0 0 0 0,-7.03e-4 2.2778467,2.2778465 0 0 0 0,-6.99e-4 2.2778467,2.2778465 0 0 0 0,-6.99e-4 2.2778467,2.2778465 0 0 0 0,-7.01e-4 2.2778467,2.2778465 0 0 0 0,-6.99e-4 2.2778467,2.2778465 0 0 0 0,-7e-4 2.2778467,2.2778465 0 0 0 0,-7.03e-4 2.2778467,2.2778465 0 0 0 0,-6.99e-4 2.2778467,2.2778465 0 0 0 0,-6.99e-4 2.2778467,2.2778465 0 0 0 0,-7.01e-4 2.2778467,2.2778465 0 0 0 0,-6.99e-4 2.2778467,2.2778465 0 0 0 0,-6.99e-4 2.2778467,2.2778465 0 0 0 0,-7.03e-4 2.2778467,2.2778465 0 0 0 0,-6.99e-4 2.2778467,2.2778465 0 0 0 0,-6.99e-4 2.2778467,2.2778465 0 0 0 0,-7.02e-4 2.2778467,2.2778465 0 0 0 0,-6.99e-4 2.2778467,2.2778465 0 0 0 0,-6.99e-4 2.2778467,2.2778465 0 0 0 0,-6.99e-4 c -0.0457,-11.046543 -4.16082,-21.646023 -11.4408,-29.924724 z m -68.463475,0.16101 V 37.798101 C 26.221271,46.076802 22.106798,56.676278 22.061147,67.722825 a 2.2778467,2.2778465 0 0 0 0,0.021 c 0.04564,11.046556 4.160117,21.645313 11.440098,29.924021 V 120.48084 C 15.640532,108.92869 4.6204407,89.191579 4.5558796,67.738222 v -0.0049 c -5.3e-6,-0.0018 4e-6,-0.0038 0,-0.0056 C 4.6204364,46.274357 15.640529,26.537962 33.501245,14.985813 Z" />
    <g
       id="layer2-9"
       inkscape:label="Camada 2" />
  </g>
</svg>
