<?xml version="1.0" encoding="UTF-8" standalone="no"?>
<!-- Created with Inkscape (http://www.inkscape.org/) -->

<svg
   width="24"
   height="24"
   viewBox="0 0 6.3499997 6.3500002"
   version="1.1"
   id="svg1"
   xml:space="preserve"
   xmlns="http://www.w3.org/2000/svg"
   xmlns:svg="http://www.w3.org/2000/svg"><defs
     id="defs1" /><g
     id="layer1"
     transform="translate(-28.77169,16.320072)"><rect
       style="fill:none;fill-opacity:1;stroke:none;stroke-width:0.009375;stroke-linecap:round;stroke-linejoin:round;paint-order:fill markers stroke"
       id="rect6"
       width="6.3499999"
       height="6.3499999"
       x="28.77169"
       y="-16.320072"
       ry="3.175" /><path
       id="path4"
       style="color:#000000;fill:#ffffff;stroke-width:0.0465088;stroke-linecap:round;stroke-linejoin:round;-inkscape-stroke:none;paint-order:fill markers stroke"
       d="m 30.288711,-15.636106 c -0.01174,0.0012 -0.02299,0.0054 -0.03269,0.01211 -0.0021,0.0015 -0.0039,0.0032 -0.006,0.0047 -0.773936,0.542971 -1.279019,1.435096 -1.279917,2.440999 v 7.5e-5 9.8e-5 c 4.6e-5,1.651047 1.332953,2.99011 2.976575,2.990107 1.643621,3e-6 2.976503,-1.339059 2.97655,-2.990107 v -2.4e-5 -2.4e-5 -2.4e-5 -2.4e-5 c -8.72e-4,-1.005948 -0.506031,-1.898088 -1.279983,-2.441075 -0.0021,-0.0015 -0.0039,-0.0033 -0.006,-0.0047 -0.07227,-0.05027 -0.152042,0.05189 -0.08576,0.109813 0.567366,0.49557 0.923987,1.246005 0.924351,2.074551 -4e-6,1.484686 -1.132837,2.686508 -2.52918,2.686507 -1.396343,10e-7 -2.529273,-1.201824 -2.529276,-2.686507 3.7e-4,-0.828546 0.356984,-1.578982 0.924351,-2.074551 0.03874,-0.03387 0.02873,-0.0966 -0.01863,-0.116734 -0.01086,-0.0046 -0.02271,-0.0064 -0.03444,-0.0052 z m 1.657992,0.0865 c -0.16654,0 -0.293983,0.161332 -0.294033,0.353349 v 9.9e-5 c 0,6.5e-5 0,1.26e-4 0,1.92e-4 4.86e-4,0.171428 0.06849,0.177601 0.121156,0.326191 0.0114,0.03528 -0.0052,0.07145 -0.01226,0.08448 -0.02805,0.0517 -0.103326,0.122076 -0.299754,0.179847 -0.409541,0.120448 -0.891112,0.09497 -1.290991,-0.08164 -0.07281,-0.0319 -0.133763,0.06331 -0.07431,0.116084 0.02386,0.02103 0.04037,0.04277 0.08196,0.07412 0.201849,0.152189 0.515188,0.32165 0.942882,0.386325 0.08439,0.01276 0.173699,0.04353 0.244258,0.104572 0.06982,0.0604 0.122976,0.152028 0.133437,0.290404 0.03204,0.423736 0.07905,1.117199 0.125819,1.709737 0.04594,0.582059 0.06468,0.742745 0.08465,0.89801 0.0103,0.07984 0.125253,0.08165 0.138076,0.0022 0.02994,-0.186387 0.03065,-0.407986 0.0298,-0.644114 -0.0011,-0.301014 0.0026,-0.619755 0.06931,-0.906469 0.06674,0.286711 0.0703,0.60546 0.06922,0.906469 -8.52e-4,0.236198 -2.07e-4,0.457879 0.02978,0.644306 0.01282,0.07947 0.127775,0.07765 0.138076,-0.0022 0.03382,-0.262833 0.05683,-0.544291 0.08477,-0.898202 0.04677,-0.592546 0.09369,-1.286012 0.125723,-1.709738 0.01046,-0.138375 0.06362,-0.230001 0.133437,-0.290404 0.07056,-0.06105 0.159864,-0.09181 0.244258,-0.104572 0.427693,-0.06467 0.741032,-0.234136 0.942882,-0.386324 0.04158,-0.03135 0.05807,-0.05309 0.08193,-0.07412 0.05939,-0.05277 -0.0015,-0.147908 -0.07429,-0.116085 -0.399879,0.17661 -0.88145,0.202093 -1.290991,0.08164 -0.196429,-0.05777 -0.271699,-0.128152 -0.299754,-0.179847 -0.02129,-0.03924 -0.01677,-0.07058 -0.01228,-0.08448 0.0527,-0.148552 0.120808,-0.154932 0.12118,-0.326287 v -2.4e-5 -2.4e-5 -2.4e-5 -2.4e-5 -2.4e-5 -2.4e-5 c 0,-0.147455 -0.09506,-0.353397 -0.293937,-0.353397 z" /></g></svg>
