<?xml version="1.0" encoding="UTF-8" standalone="no"?>
<!-- Created with Inkscape (http://www.inkscape.org/) -->

<svg
   width="32.511322"
   height="31.999998"
   viewBox="0 0 8.6019537 8.4666662"
   version="1.1"
   id="svg1"
   xml:space="preserve"
   inkscape:version="1.3 (0e150ed6c4, 2023-07-21)"
   sodipodi:docname="Kaatan Logo.svg"
   xmlns:inkscape="http://www.inkscape.org/namespaces/inkscape"
   xmlns:sodipodi="http://sodipodi.sourceforge.net/DTD/sodipodi-0.dtd"
   xmlns="http://www.w3.org/2000/svg"
   xmlns:svg="http://www.w3.org/2000/svg"><sodipodi:namedview
     id="namedview1"
     pagecolor="#505050"
     bordercolor="#eeeeee"
     borderopacity="1"
     inkscape:showpageshadow="0"
     inkscape:pageopacity="0"
     inkscape:pagecheckerboard="0"
     inkscape:deskcolor="#505050"
     inkscape:document-units="mm"
     inkscape:zoom="2.6356195"
     inkscape:cx="-128.81222"
     inkscape:cy="12.710484"
     inkscape:window-width="1366"
     inkscape:window-height="715"
     inkscape:window-x="-8"
     inkscape:window-y="-8"
     inkscape:window-maximized="1"
     inkscape:current-layer="layer1" /><defs
     id="defs1" /><g
     inkscape:label="Camada 1"
     inkscape:groupmode="layer"
     id="layer1"
     transform="translate(40.366132,2.3128576)"><path
       id="path11"
       style="color:#000000;fill:#ffffff;fill-opacity:1;stroke-width:0.0504814;stroke-linecap:round;stroke-linejoin:round;-inkscape-stroke:none"
       d="m -35.156992,-2.3126181 c -0.133386,0.00319 -0.26758,0.038649 -0.390419,0.109565 l -4.406339,2.54398481 c -0.39308,0.22694425 -0.529537,0.73625599 -0.302586,1.12933689 l 2.543986,4.4063399 c 0.06686,0.1158112 0.15864,0.2086607 0.264339,0.2772003 -0.06667,-0.371276 -0.09327,-0.7933598 -0.08324,-1.3180479 0.0103,-0.5376614 0.04435,-0.863243 0.15509,-1.4820848 0.142423,-0.7959095 0.422305,-1.608402 0.723342,-2.0999054 0.171393,-0.27984602 0.2584,-0.39197125 0.342288,-0.44113214 0.123794,-0.0725418 0.429868,-0.0509981 0.748307,0.0526958 0.131524,0.0428288 0.398845,0.18507114 0.52357,0.27858264 0.134219,0.1006244 0.324524,0.2885677 0.444521,0.4389935 0.229882,0.2881674 0.407445,0.6896027 0.459759,1.0393627 0.0084,0.056459 0.0233,0.1362613 0.033,0.1773382 0.01242,0.052824 0.01382,0.081906 0.0045,0.099315 -0.0072,0.013542 -0.02704,0.072313 -0.04397,0.1306188 -0.0471,0.1622463 -0.1931,0.5444546 -0.285574,0.7475772 -0.0517,0.1135746 -0.212169,0.4190829 -0.283072,0.5389329 -0.222933,0.3768428 -0.372896,0.6002445 -0.611559,0.9109865 -0.09402,0.1224032 -0.241658,0.2916932 -0.37975,0.442958 l 3.52418,-2.0347132 c 0.393082,-0.226944 0.52961,-0.7363863 0.302665,-1.1294656 l -2.544014,-4.4063148 c -0.156019,-0.2702436 -0.445545,-0.41918 -0.738995,-0.4121241 z m -0.434218,1.2074916 c 0.203086,-0.00103 0.405821,0.026085 0.564393,0.081237 0.287095,0.0998436 0.559937,0.27634734 0.771552,0.49912335 0.278561,0.29325392 0.511173,0.76791143 0.602168,1.22870254 0.03071,0.15556843 0.03965,0.66806171 0.01447,0.83405521 -0.01015,0.067045 -0.01918,0.1085754 -0.02006,0.092296 -0.0033,-0.061305 -0.09194,-0.3889401 -0.143267,-0.5297503 -0.07036,-0.19301645 -0.217474,-0.47542874 -0.315759,-0.60610646 -0.137731,-0.18313053 -0.414843,-0.44822345 -0.614037,-0.58745576 -0.139593,-0.09756689 -0.340253,-0.21094597 -0.468236,-0.26457415 -0.114456,-0.0479562 -0.436887,-0.14449672 -0.483083,-0.14462598 -0.009,-2.499e-5 -0.01655,0.0340562 -0.01965,0.0893743 -0.006,0.10777944 -0.03065,0.14765416 -0.118039,0.19145413 -0.101577,0.050912 -0.197804,0.0500157 -0.444394,-0.004223 -0.116445,-0.0256111 -0.250475,-0.0580989 -0.297836,-0.0721799 -0.08235,-0.0244822 -0.279576,-0.11132467 -0.279576,-0.12310474 0,-0.0147703 0.04773,-0.0956159 0.09907,-0.16776645 0.128139,-0.18016439 0.359342,-0.34990597 0.585732,-0.43001999 0.159966,-0.056608 0.363418,-0.085494 0.566506,-0.086425 z m -1.247954,0.88547428 c 0.05546,-4.1019e-4 0.147041,0.0491712 0.195784,0.10612231 0.05754,0.06722481 0.09938,0.17861584 0.09373,0.24965388 -0.0038,0.0473271 -10e-4,0.0546175 0.02142,0.0551517 0.01413,2.0509e-4 0.08953,0.0192169 0.167481,0.0419498 0.24799,0.0723436 0.457511,0.21909894 0.543707,0.38081935 0.02314,0.0433803 0.04004,0.0808232 0.03759,0.0832188 -0.0072,0.007066 -0.172965,-0.0510671 -0.325225,-0.1139754 -0.211535,-0.0873991 -0.339166,-0.11484487 -0.538933,-0.11587638 -0.154639,-8.2038e-4 -0.172133,0.001637 -0.239401,0.03316 -0.175438,0.0822451 -0.267557,0.25562488 -0.223958,0.4214886 0.01016,0.0388044 0.01707,0.0720247 0.01533,0.0738258 -0.0018,0.00181 -0.03914,-0.0340562 -0.08297,-0.0796943 -0.127505,-0.13278128 -0.207117,-0.33047531 -0.206586,-0.51295001 2.04e-4,-0.077109 0.02982,-0.21024968 0.05946,-0.26757389 0.0783,-0.15141654 0.353756,-0.35419832 0.482636,-0.35530653 z m 0.773926,2.84617612 c -0.0033,-0.00529 -0.01326,0.08052 -0.03287,0.2716191 -0.01413,0.1376211 -0.04,0.3541698 -0.05758,0.4812028 -0.01758,0.1270344 -0.04383,0.3262502 -0.05836,0.4426973 -0.07754,0.6213997 -0.129479,1.0208681 -0.147385,1.1336663 -0.01101,0.06951 -0.03714,0.2600592 -0.05799,0.4234459 -0.02085,0.1633857 -0.04607,0.3605774 -0.05606,0.4382094 -0.0087,0.068738 -0.0241,0.2061747 -0.03621,0.3207944 l 0.463385,-0.2675497 c -0.009,-0.382549 -0.02446,-2.9535512 -0.01781,-3.1392661 0.0024,-0.065676 0.0029,-0.1016479 8.19e-4,-0.1048189 z"
       inkscape:label="rect_logo_branco" /></g></svg>
